<?xml version="1.0" encoding="UTF-8" standalone="no"?>
<!-- Created with Inkscape (http://www.inkscape.org/) -->

<svg
   width="35mm"
   height="35mm"
   viewBox="0 0 35 35"
   version="1.1"
   id="svg5"
   xml:space="preserve"
   inkscape:version="1.2 (dc2aedaf03, 2022-05-15)"
   sodipodi:docname="user.svg"
   inkscape:export-filename="user.png"
   inkscape:export-xdpi="96"
   inkscape:export-ydpi="96"
   xmlns:inkscape="http://www.inkscape.org/namespaces/inkscape"
   xmlns:sodipodi="http://sodipodi.sourceforge.net/DTD/sodipodi-0.dtd"
   xmlns:xlink="http://www.w3.org/1999/xlink"
   xmlns="http://www.w3.org/2000/svg"
   xmlns:svg="http://www.w3.org/2000/svg"><sodipodi:namedview
     id="namedview7"
     pagecolor="#ffffff"
     bordercolor="#000000"
     borderopacity="0.25"
     inkscape:showpageshadow="2"
     inkscape:pageopacity="0.0"
     inkscape:pagecheckerboard="0"
     inkscape:deskcolor="#d1d1d1"
     inkscape:document-units="mm"
     showgrid="false"
     inkscape:zoom="3.7415826"
     inkscape:cx="67.083913"
     inkscape:cy="68.687513"
     inkscape:window-width="1366"
     inkscape:window-height="705"
     inkscape:window-x="-8"
     inkscape:window-y="-8"
     inkscape:window-maximized="1"
     inkscape:current-layer="layer1" /><defs
     id="defs2"><linearGradient
       inkscape:collect="always"
       id="linearGradient3410"><stop
         style="stop-color:#0c54bc;stop-opacity:1;"
         offset="0"
         id="stop3406" /><stop
         style="stop-color:#0a397d;stop-opacity:0.49803922;"
         offset="0.46910757"
         id="stop3422" /><stop
         style="stop-color:#63228e;stop-opacity:0.24705882;"
         offset="0.87643021"
         id="stop3424" /><stop
         style="stop-color:#bc0ca0;stop-opacity:0;"
         offset="0.99084669"
         id="stop3408" /></linearGradient><linearGradient
       inkscape:collect="always"
       xlink:href="#linearGradient3410"
       id="linearGradient3412"
       x1="-3.2954476"
       y1="33.300983"
       x2="33.29512"
       y2="3.8994856"
       gradientUnits="userSpaceOnUse" /></defs><g
     inkscape:label="Capa 1"
     inkscape:groupmode="layer"
     id="layer1"><path
       id="path359"
       style="opacity:1;mix-blend-mode:normal;fill:none;stroke:url(#linearGradient3412);stroke-width:0.5;stroke-linecap:butt;stroke-linejoin:bevel;stroke-dasharray:none;stroke-dashoffset:0;stroke-opacity:1"
       d="m 17.517277,2.2484416 c -3.71798,-0.018565 -7.10971,2.9096807 -7.9648885,7.0920735 -0.4350579,2.1276919 -0.1780023,3.9593529 0.8283735,5.8962809 1.407724,2.7094 4.100464,4.8715 6.518982,5.234306 1.728612,0.25931 3.866276,-0.693999 5.708695,-2.545064 0.930829,-0.935195 1.475249,-1.665715 2.022099,-2.71353 0.992629,-1.901972 1.250703,-3.753476 0.817521,-5.8719929 C 24.700788,5.6858617 22.027815,2.9262141 18.678963,2.3507609 18.289814,2.283891 17.901896,2.250362 17.517277,2.2484416 Z m -6.039425,17.2568274 -0.766878,0.399459 c -1.3906415,0.724783 -2.5692981,1.620803 -3.749125,2.849955 -2.1766879,2.267702 -3.5316157,5.161229 -3.9000204,8.329208 -0.05897,0.507067 -0.1069702,1.089904 -0.1069702,1.295011 v 0.373104 H 17.500224 32.045072 v -0.373104 c 0,-0.205107 -0.04797,-0.787944 -0.10697,-1.295011 -0.368408,-3.167979 -1.723332,-6.061506 -3.90002,-8.329208 -1.179827,-1.229152 -2.357965,-2.125172 -3.748609,-2.849955 l -0.767395,-0.399459 -0.864546,0.861963 c -2.148595,2.14257 -4.409337,3.012857 -6.391858,2.460315 -1.359744,-0.378965 -2.643509,-1.184133 -3.923275,-2.460315 z" /></g></svg>
